name C:\Users\u0101727\Documents\MyRepositories\upper-imu-dc\Results\main_tracking\Case_52\kinematics_filtered.mot
datacolumns 10
datarows 33
range 0.70000000 1.02000000
endheader 
time	clav_prot	clav_elev	scapula_abduction	scapula_elevation	scapula_upward_rot	scapula_winging	plane_elv	shoulder_elv	axial_rot	
          0.70000000	        -19.62061712	         -4.67797735	         -7.03723189	         -4.43934208	         13.48503445	          5.17495956	        -25.05969879	         15.08150514	         51.13298764	
          0.71000000	        -19.57080736	         -4.70756827	         -6.97062376	         -4.39908562	         13.41313235	          5.18569916	        -24.96203131	         15.13084252	         50.92444018	
          0.72000000	        -19.52665548	         -4.73156085	         -6.91727637	         -4.35829683	         13.33993905	          5.19672570	        -24.86233708	         15.18083953	         50.71150974	
          0.73000000	        -19.49233791	         -4.74647409	         -6.88558827	         -4.31728637	         13.26645207	          5.20786139	        -24.76075925	         15.23091700	         50.49487034	
          0.74000000	        -19.46988351	         -4.75087544	         -6.87914766	         -4.27622160	         13.19370289	          5.21888967	        -24.65700839	         15.28059813	         50.27444048	
          0.75000000	        -19.45993044	         -4.74474467	         -6.89829369	         -4.23514882	         13.12286711	          5.22952627	        -24.55045113	         15.32947753	         50.04960358	
          0.76000000	        -19.46258593	         -4.72873719	         -6.94191515	         -4.19401472	         13.05536017	          5.23939255	        -24.44020166	         15.37718174	         49.81943303	
          0.77000000	        -19.47804692	         -4.70364954	         -7.00875247	         -4.15268272	         12.99290417	          5.24799405	        -24.32520808	         15.42332203	         49.58290144	
          0.78000000	        -19.50699943	         -4.67006262	         -7.09824953	         -4.11094058	         12.93755775	          5.25470521	        -24.20432923	         15.46744370	         49.33906412	
          0.79000000	        -19.55082164	         -4.62812891	         -7.21101862	         -4.06849600	         12.89170403	          5.25876102	        -24.07640170	         15.50897658	         49.08721549	
          0.80000000	        -19.61161426	         -4.57746889	         -7.34897852	         -4.02495857	         12.85799223	          5.25925645	        -23.94029906	         15.54718963	         48.82702257	
          0.81000000	        -19.69207389	         -4.51714568	         -7.51521133	         -3.97980719	         12.83922959	          5.25515508	        -23.79498645	         15.58115243	         48.55864131	
          0.82000000	        -19.79521765	         -4.44569360	         -7.71356574	         -3.93234329	         12.83822215	          5.24530856	        -23.63957414	         15.60970557	         48.28282025	
          0.83000000	        -19.92396088	         -4.36118306	         -7.94801891	         -3.88163240	         12.85756600	          5.22848880	        -23.47337265	         15.63144207	         48.00099235	
          0.84000000	        -20.08055040	         -4.26131117	         -8.22180357	         -3.82643831	         12.89939697	          5.20343415	        -23.29595060	         15.64470222	         47.71535104	
          0.85000000	        -20.26586514	         -4.14351193	         -8.53631548	         -3.76515786	         12.96511539	          5.16891010	        -23.10719511	         15.64758391	         47.42890318	
          0.86000000	        -20.47861876	         -4.00508342	         -8.88984705	         -3.69576765	         13.05511496	          5.12378279	        -22.90737252	         15.63797013	         47.14548908	
          0.87000000	        -20.71453690	         -3.84332972	         -9.27624975	         -3.61579873	         13.16855887	          5.06710121	        -22.69718587	         15.61357407	         46.86976061	
          0.88000000	        -20.96563875	         -3.65571349	         -9.68371802	         -3.52235912	         13.30326137	          4.99818041	        -22.47782445	         15.57200060	         46.60711062	
          0.89000000	        -21.21982877	         -3.44001000	        -10.09401367	         -3.41222675	         13.45574400	          4.91667408	        -22.25099990	         15.51082003	         46.36355103	
          0.90000000	        -21.46109962	         -3.19444482	        -10.48261594	         -3.28203451	         13.62153753	          4.82262137	        -22.01896325	         15.42764784	         46.14554091	
          0.91000000	        -21.67075981	         -2.91778462	        -10.82049070	         -3.12856116	         13.79578259	          4.71645095	        -21.78449838	         15.32022024	         45.95976948	
          0.92000000	        -21.83023100	         -2.60933120	        -11.07843723	         -2.94912176	         13.97412829	          4.59892715	        -21.55088922	         15.18645463	         45.81290134	
          0.93000000	        -21.92616516	         -2.26873451	        -11.23540179	         -2.74200979	         14.15381751	          4.47102961	        -21.32185830	         15.02448700	         45.71129226	
          0.94000000	        -21.95687591	         -1.89565407	        -11.28915765	         -2.50688386	         14.33468872	          4.33377368	        -21.10146436	         14.83269397	         45.66068693	
          0.95000000	        -21.93495926	         -1.48961734	        -11.26055523	         -2.24496188	         14.51973051	          4.18800523	        -20.89393155	         14.60972362	         45.66591259	
          0.96000000	        -21.88245463	         -1.05033744	        -11.18505730	         -1.95893942	         14.71494676	          4.03422376	        -20.70339490	         14.35455411	         45.73058290	
          0.97000000	        -21.82264716	         -0.57818228	        -11.09874298	         -1.65265545	         14.92857800	          3.87249357	        -20.53358287	         14.06656926	         45.85682811	
          0.98000000	        -21.77432663	         -0.07436819	        -11.02887708	         -1.33059416	         15.16993612	          3.70248503	        -20.38747323	         13.74562477	         46.04506442	
          0.99000000	        -21.74936283	          0.45915879	        -10.99040612	         -0.99731853	         15.44813556	          3.52363366	        -20.26694561	         13.39208846	         46.29380679	
          1.00000000	        -21.75199048	          1.01998727	        -10.98542077	         -0.65692318	         15.77093905	          3.33535748	        -20.17245150	         13.00685125	         46.59953208	
          1.01000000	        -21.77893500	          1.60552671	        -11.00395390	         -0.31258982	         16.14386945	          3.13727958	        -20.10272969	         12.59131071	         46.95660993	
          1.02000000	        -21.82030958	          2.21324954	        -11.02592626	          0.03368291	         16.56968360	          2.92942554	        -20.05459562	         12.14733269	         47.35731724	
